<svg xmlns="http://www.w3.org/2000/svg" viewBox="0 0 120 120" aria-hidden="true">
  <circle cx="60" cy="60" r="45" fill="none" stroke="#000" stroke-width="8"/>
  <circle cx="60" cy="60" r="9" fill="none" stroke="#000" stroke-width="5"/>
  <circle cx="60" cy="60" r="4" fill="#000"/>
  <g stroke="#000" stroke-width="3.2" stroke-linecap="round">
    <line x1="60" y1="51" x2="60" y2="15"/>
    <line x1="60" y1="69" x2="60" y2="105"/>
    <line x1="51" y1="60" x2="15" y2="60"/>
    <line x1="69" y1="60" x2="105" y2="60"/>
    <line x1="53.6" y1="53.6" x2="28.2" y2="28.2"/>
    <line x1="66.4" y1="66.4" x2="91.8" y2="91.8"/>
    <line x1="66.4" y1="53.6" x2="91.8" y2="28.2"/>
    <line x1="53.6" y1="66.4" x2="28.2" y2="91.8"/>
    <line x1="57.2" y1="51.5" x2="46.5" y2="18.1"/>
    <line x1="62.8" y1="68.5" x2="73.5" y2="101.9"/>
    <line x1="68.5" y1="57.2" x2="101.9" y2="46.5"/>
    <line x1="51.5" y1="62.8" x2="18.1" y2="73.5"/>
    <line x1="62.8" y1="51.5" x2="73.5" y2="18.1"/>
    <line x1="57.2" y1="68.5" x2="46.5" y2="101.9"/>
    <line x1="68.5" y1="62.8" x2="101.9" y2="73.5"/>
    <line x1="51.5" y1="57.2" x2="18.1" y2="46.5"/>
  </g>
</svg>
